<svg width="546" height="132" viewBox="0 0 546 132" fill="none" xmlns="http://www.w3.org/2000/svg">
<path d="M514.217 25.4158L514.224 25.4243L514.231 25.4326C516.462 28.0514 520.052 29.2401 524.721 29.2401C529.387 29.2401 533.03 28.0962 535.425 25.6052C537.771 23.1653 538.905 19.955 538.905 16.0801C538.905 12.1254 537.73 8.96275 535.247 6.76217C532.78 4.48929 529.258 3.43213 524.849 3.43213C520.418 3.43213 516.913 4.58627 514.528 7.06701L514.521 7.07436L514.514 7.08184C512.273 9.50964 511.177 12.5787 511.177 16.2081C511.177 19.8156 512.173 22.9073 514.217 25.4158ZM505.393 36.0721H504.393V37.0721V39.3761V40.3761H505.393H511.945V94.6961H505.905H504.905V95.6961V98.0001V99.0001H505.905H543.921H544.921V98.0001V95.6961V94.6961H543.921H537.753V37.0721V36.0721H536.753H505.393Z" fill="white" stroke="black" stroke-width="2"/>
<path d="M498.003 37.0721V36.0721H497.003H464.875H463.875V37.0721V39.3761V40.3761H464.875H472.195V105.168C472.195 109.762 472.078 113.553 471.846 116.547C471.612 119.559 471.267 121.702 470.835 123.036L470.833 123.044C470.402 124.416 469.805 125.347 469.099 125.936C468.406 126.513 467.533 126.824 466.411 126.824C464.06 126.824 462.725 126.094 462.028 124.891L462.019 124.874L462.008 124.858C461.321 123.769 461.277 122.38 462.261 120.504H466.539H467.32L467.509 119.747C468.042 117.615 468.307 115.4 468.307 113.104C468.307 110.617 467.39 108.343 465.632 106.307L465.616 106.288L465.599 106.27C463.645 104.219 460.827 103.272 457.323 103.272C453.783 103.272 450.765 104.323 448.34 106.467L448.332 106.474L448.325 106.481C445.853 108.763 444.675 111.959 444.675 115.92C444.675 120.016 446.507 123.564 450.016 126.535C453.527 129.581 458.98 131 466.155 131C477.319 131 485.533 127.233 490.543 119.541C495.56 111.969 498.003 101.075 498.003 86.9921V37.0721ZM474.34 25.4158L474.346 25.4243L474.354 25.4326C476.584 28.0514 480.174 29.2401 484.843 29.2401C489.51 29.2401 493.152 28.0962 495.548 25.6052C497.894 23.1653 499.027 19.955 499.027 16.0801C499.027 12.1254 497.852 8.96271 495.369 6.76213C492.902 4.48928 489.38 3.43213 484.971 3.43213C480.54 3.43213 477.035 4.58627 474.65 7.06701L474.643 7.07436L474.636 7.08184C472.395 9.50965 471.299 12.5787 471.299 16.2081C471.299 19.8156 472.296 22.9073 474.34 25.4158Z" fill="white" stroke="black" stroke-width="2"/>
<path d="M424.315 73.4431C425.409 71.837 427.029 70.9931 429.337 70.9686V81.872C429.337 85.6258 428.75 88.4697 427.664 90.4859L427.661 90.4923L427.657 90.4987C426.585 92.5607 425.603 93.16 424.833 93.16C424.366 93.16 424.034 93.0463 423.782 92.8663C423.529 92.6858 423.285 92.3868 423.084 91.8962C422.916 91.3759 422.766 90.4543 422.662 89.0616C422.558 87.6665 422.505 85.8697 422.505 83.664V81.616C422.505 77.8157 423.158 75.1419 424.315 73.4431ZM426.426 97.7982C428.239 96.5431 429.684 94.7883 430.783 92.5762C431.864 94.7873 433.593 96.5325 435.944 97.7933C439.091 99.4806 443.308 100.28 448.513 100.28C454.287 100.28 458.681 98.8376 461.424 95.7161C464.139 92.6261 465.553 87.1577 465.896 79.6134L465.94 78.6353L464.963 78.5702L463.043 78.4422L462.037 78.3751L461.978 79.3818C461.724 83.7462 461.176 86.9167 460.38 88.966C459.571 91.0496 458.666 91.624 457.857 91.624C457.392 91.624 457.033 91.5215 456.746 91.3496C456.457 91.1769 456.185 90.9014 455.946 90.4729C455.451 89.5858 455.145 88.1265 455.145 85.968V59.984C455.145 50.6949 453.179 44.002 448.922 40.293C444.786 36.5316 437.455 34.792 427.265 34.792C418.282 34.792 411.38 36.1078 406.693 38.8662C401.924 41.673 399.513 45.94 399.513 51.536C399.513 55.2407 400.474 58.2007 402.57 60.2235C404.659 62.24 407.706 63.16 411.521 63.16C414.958 63.16 417.885 62.2053 420.228 60.2377L420.237 60.2303L420.245 60.2227C422.559 58.1867 423.785 55.7501 423.785 52.944C423.785 50.3007 423.433 47.9967 422.695 46.06L422.45 45.416H421.761H419.286C418.954 44.2998 418.793 43.2261 418.793 42.192C418.793 41.0728 419.224 40.2844 420.125 39.7052L420.132 39.7007L420.139 39.696C421.255 38.952 422.47 38.584 423.809 38.584C424.895 38.584 425.726 38.8779 426.372 39.4114C427.031 39.9548 427.584 40.8175 427.972 42.098L427.977 42.1156L427.983 42.1331C428.859 44.682 429.337 49.9357 429.337 58.064V66.92H426.625C416.6 66.92 408.997 68.0709 403.928 70.4705C401.374 71.6572 399.418 73.3792 398.111 75.644C396.808 77.9009 396.185 80.6334 396.185 83.792C396.185 89.168 397.838 93.3621 401.288 96.1822C404.698 98.9708 409.703 100.28 416.129 100.28C420.49 100.28 423.968 99.4995 426.426 97.7982Z" fill="white" stroke="black" stroke-width="2"/>
<path d="M317.03 1H316.03V2V4.304V5.304H317.03H323.07V94.696H317.03H316.03V95.696V98V99H317.03H353.382H354.382V98V95.696V94.696H353.382H348.878V60.368C348.878 55.3844 349.874 51.215 351.814 47.8158C353.868 44.3689 356.032 42.936 358.246 42.936C358.999 42.936 359.563 43.0963 359.991 43.3616C360.414 43.6243 360.772 44.0323 361.044 44.6461L361.049 44.656L361.053 44.6658C361.319 45.23 361.563 46.2718 361.732 47.8953C361.897 49.4904 361.982 51.554 361.982 54.096V94.696H357.734H356.734V95.696V98V99H357.734H393.958H394.958V98V95.696V94.696H393.958H387.79V57.168C387.79 49.9063 386.107 44.2737 382.563 40.4557C379.007 36.6237 373.738 34.792 366.95 34.792C361.12 34.792 356.576 36.0063 353.503 38.6135C351.661 40.1768 350.12 42.0467 348.878 44.214V2V1H347.878H317.03Z" fill="white" stroke="black" stroke-width="2"/>
<path d="M234.062 7.3999H233.062V8.3999V10.8319V11.8319H234.062H241.382V94.5679H234.062H233.062V95.5679V97.9999V98.9999H234.062H271.695C284.903 98.9999 295.161 97.1602 302.367 93.3816L302.375 93.3771C309.759 89.4149 313.398 82.5055 313.398 72.9119C313.398 66.3053 311.168 60.9802 306.655 57.0535C303.014 53.8859 297.953 51.6853 291.543 50.3936C296.508 49.0586 300.461 46.9817 303.343 44.1172C307.086 40.3976 308.919 35.4525 308.919 29.3919C308.919 25.4641 308.146 22.0459 306.553 19.1783C304.957 16.3066 302.57 14.0434 299.433 12.3838C293.324 9.02198 284.248 7.3999 272.334 7.3999H234.062ZM279.05 45.7392L279.05 45.7392L279.046 45.7458C277.593 47.998 274.92 49.2559 270.67 49.2559H268.343V11.8319H271.438C275.615 11.8319 278.133 13.0526 279.413 15.1864L279.417 15.1929L279.421 15.1993C280.796 17.4151 281.575 21.556 281.575 27.8559V33.8719C281.575 39.3448 280.684 43.2497 279.05 45.7392ZM273.359 94.5679H268.343V53.6879H270.286C276.058 53.6879 279.778 55.0733 281.801 57.5451C283.897 60.1076 285.031 64.0628 285.031 69.5839V76.3679C285.031 82.6131 284.097 87.1838 282.349 90.2029C280.697 93.0556 277.8 94.5679 273.359 94.5679Z" fill="white" stroke="black" stroke-width="2"/>
<path d="M139.25 39.3758V40.3758H140.25H144.823L168.251 98.3743L168.503 98.9998H169.178H183.77H184.498L184.722 98.3073L203.442 40.3758H208.346H209.346V39.3758V37.0718V36.0718H208.346H191.066H190.066V37.0718V39.3758V40.3758H191.066H198.265L185.768 78.7922L171.883 40.3758H178.522H179.522V39.3758V37.0718V36.0718H178.522H140.25H139.25V37.0718V39.3758Z" fill="white" stroke="black" stroke-width="2"/>
<path d="M107.315 73.4431C108.409 71.837 110.029 70.9931 112.337 70.9686V81.872C112.337 85.6258 111.75 88.4697 110.664 90.4859L110.661 90.4923L110.657 90.4987C109.585 92.5607 108.603 93.16 107.833 93.16C107.366 93.16 107.034 93.0463 106.782 92.8663C106.529 92.6858 106.285 92.3868 106.084 91.8962C105.916 91.3759 105.766 90.4543 105.662 89.0616C105.558 87.6665 105.505 85.8697 105.505 83.664V81.616C105.505 77.8157 106.158 75.1419 107.315 73.4431ZM109.426 97.7982C111.239 96.5431 112.684 94.7883 113.783 92.5762C114.864 94.7873 116.593 96.5325 118.944 97.7933C122.091 99.4806 126.308 100.28 131.513 100.28C137.287 100.28 141.681 98.8376 144.424 95.7161C147.139 92.6261 148.553 87.1577 148.896 79.6134L148.94 78.6353L147.963 78.5702L146.043 78.4422L145.037 78.3751L144.978 79.3818C144.724 83.7462 144.176 86.9167 143.38 88.966C142.571 91.0496 141.666 91.624 140.857 91.624C140.392 91.624 140.033 91.5215 139.746 91.3496C139.457 91.1769 139.185 90.9014 138.946 90.4729C138.451 89.5858 138.145 88.1265 138.145 85.968V59.984C138.145 50.6949 136.179 44.002 131.921 40.293C127.786 36.5316 120.455 34.792 110.265 34.792C101.282 34.792 94.3803 36.1078 89.6934 38.8662C84.924 41.673 82.5126 45.94 82.5126 51.536C82.5126 55.2407 83.4742 58.2007 85.5701 60.2235C87.6595 62.24 90.7058 63.16 94.5206 63.16C97.9579 63.16 100.885 62.2053 103.228 60.2377L103.237 60.2303L103.245 60.2227C105.559 58.1867 106.785 55.7501 106.785 52.944C106.785 50.3007 106.433 47.9967 105.695 46.06L105.45 45.416H104.761H102.286C101.954 44.2998 101.793 43.2261 101.793 42.192C101.793 41.0728 102.224 40.2844 103.125 39.7052L103.132 39.7007L103.139 39.696C104.255 38.952 105.47 38.584 106.809 38.584C107.895 38.584 108.726 38.8779 109.372 39.4114C110.031 39.9548 110.584 40.8175 110.972 42.098L110.977 42.1156L110.983 42.1331C111.859 44.682 112.337 49.9357 112.337 58.064V66.92H109.625C99.6005 66.92 91.9965 68.0709 86.9282 70.4705C84.3738 71.6572 82.418 73.3792 81.1105 75.644C79.8076 77.9009 79.1846 80.6334 79.1846 83.792C79.1846 89.168 80.8382 93.3621 84.2876 96.1822C87.6984 98.9708 92.7032 100.28 99.1286 100.28C103.49 100.28 106.968 99.4995 109.426 97.7982Z" fill="white" stroke="black" stroke-width="2"/>
<path d="M2.91992 7.3999H1.91992V8.3999V10.8319V11.8319H2.91992H10.2399V94.5679H2.91992H1.91992V95.5679V97.9999V98.9999H2.91992H52.1999H53.1999V97.9999V95.5679V94.5679H52.1999H37.1999V62.2639H37.2239C50.1827 62.2639 60.3905 60.4223 67.7596 56.6501L67.7668 56.6463C75.8561 52.4219 79.8239 44.7271 79.8239 33.8719C79.8239 24.0863 76.5737 17.074 69.8587 13.1698C63.3124 9.27917 53.4964 7.3999 40.5519 7.3999H2.91992ZM48.7891 15.7094L48.7946 15.7183L48.8004 15.7272C50.5082 18.3666 51.4559 23.1849 51.4559 30.4159V36.5599C51.4559 44.3741 50.471 49.8304 48.6398 53.0947C46.9044 56.1881 43.7624 57.8319 38.8879 57.8319H37.1999V11.8319H39.6559C44.3352 11.8319 47.2507 13.2186 48.7891 15.7094Z" fill="white" stroke="black" stroke-width="2"/>
</svg>
